<?xml version="1.0" standalone="no"?>
<!DOCTYPE svg PUBLIC "-//W3C//DTD SVG 20010904//EN"
 "http://www.w3.org/TR/2001/REC-SVG-20010904/DTD/svg10.dtd">
<svg version="1.0" xmlns="http://www.w3.org/2000/svg"
 width="500.000000pt" height="283.000000pt" viewBox="0 0 500.000000 283.000000"
 preserveAspectRatio="xMidYMid meet">

<g transform="translate(0.000000,283.000000) scale(0.100000,-0.100000)"
fill="#000000" stroke="none">
<path d="M1225 2814 c-347 -51 -672 -232 -893 -499 -357 -431 -428 -1014 -186
-1520 162 -339 474 -613 829 -728 173 -56 214 -62 450 -62 236 1 303 11 467
70 205 74 439 226 561 366 l45 51 84 -84 c204 -202 482 -346 762 -393 129 -22
370 -20 493 4 518 101 935 465 1087 949 57 182 61 212 61 447 -1 194 -4 231
-23 310 -136 544 -522 930 -1067 1067 -80 20 -115 22 -315 22 -214 1 -230 -1
-328 -27 -285 -75 -513 -207 -692 -399 l-56 -59 -90 88 c-193 189 -431 319
-691 379 -66 15 -427 28 -498 18z m425 -303 c273 -61 498 -204 668 -422 10
-13 5 -31 -27 -100 -83 -177 -121 -361 -121 -587 0 -218 45 -424 130 -593 l31
-61 -27 -36 c-150 -196 -407 -352 -672 -407 -110 -23 -329 -20 -446 5 -355 77
-651 318 -797 649 -186 421 -95 911 229 1237 165 166 347 266 572 314 120 26
345 26 460 1z m2270 -431 c142 -30 276 -133 338 -260 88 -179 105 -471 41
-667 -41 -124 -143 -244 -253 -298 -110 -54 -207 -65 -573 -65 l-333 0 0 656
0 656 363 -5 c215 -3 384 -10 417 -17z"/>
<path d="M1220 1445 l0 -645 200 0 200 0 0 645 0 645 -200 0 -200 0 0 -645z"/>
<path d="M3540 1445 l0 -358 113 5 c126 6 170 20 209 66 48 58 63 122 62 277
-1 77 -6 160 -13 185 -33 120 -101 165 -268 176 l-103 7 0 -358z"/>
</g>
</svg>
